HIERARCHY
ROOT Hips
{
  OFFSET 5.84602e-005 68.8428 3.50346
  CHANNELS 6 Xposition Yposition Zposition Zrotation Xrotation Yrotation
  JOINT Spine
  {
    OFFSET 0 8.597 -4.6522
    CHANNELS 3 Zrotation Xrotation Yrotation
    JOINT Spine1
    {
      OFFSET 0 7.8454 0.4098
      CHANNELS 3 Zrotation Xrotation Yrotation
      JOINT Spine2
      {
        OFFSET 0 9.7078 -2.1609
        CHANNELS 3 Zrotation Xrotation Yrotation
        JOINT Neck
        {
          OFFSET 0 21.8761 -0.4549
          CHANNELS 3 Zrotation Xrotation Yrotation
          JOINT Head
          {
            OFFSET 0 12.3537 3.3602
            CHANNELS 3 Zrotation Xrotation Yrotation
            End Site
            {
              OFFSET 0.0001 18.9506 0.5657
            }
          }
        }
        JOINT LeftShoulder
        {
          OFFSET 2.2086 21.1115 7.2329
          CHANNELS 3 Zrotation Xrotation Yrotation
          JOINT LeftArm
          {
            OFFSET 13.1193 3.0282 -4.8998
            CHANNELS 3 Zrotation Xrotation Yrotation
            JOINT LeftForeArm
            {
              OFFSET 27.4081 -0.0973053 -0.2375
              CHANNELS 3 Zrotation Xrotation Yrotation
              JOINT LeftHand
              {
                OFFSET 22.8641 0.0662994 -0.1369
                CHANNELS 3 Zrotation Xrotation Yrotation
                JOINT LeftHandIndex1
                {
                  OFFSET 8.8614 0.775009 2.4612
                  CHANNELS 3 Zrotation Xrotation Yrotation
                  JOINT LeftHandIndex2
                  {
                    OFFSET 3.3146 -0.808304 0.5841
                    CHANNELS 3 Zrotation Xrotation Yrotation
                    JOINT LeftHandIndex3
                    {
                      OFFSET 2.2628 -0.552002 0.3989
                      CHANNELS 3 Zrotation Xrotation Yrotation
                      End Site
                      {
                        OFFSET 1.6102 -0.4807 0.2612
                      }
                    }
                  }
                }
                JOINT LeftHandMiddle1
                {
                  OFFSET 8.9937 0.895004 0.2143
                  CHANNELS 3 Zrotation Xrotation Yrotation
                  JOINT LeftHandMiddle2
                  {
                    OFFSET 4.0984 0.0113983 -0.0242
                    CHANNELS 3 Zrotation Xrotation Yrotation
                    JOINT LeftHandMiddle3
                    {
                      OFFSET 2.2716 0.00689697 -0.0138001
                      CHANNELS 3 Zrotation Xrotation Yrotation
                      End Site
                      {
                        OFFSET 2.0404 -0.1441 0.0027
                      }
                    }
                  }
                }
                JOINT LeftHandRing1
                {
                  OFFSET 8.5234 0.597198 -2.0164
                  CHANNELS 3 Zrotation Xrotation Yrotation
                  JOINT LeftHandRing2
                  {
                    OFFSET 3.7188 -0.188293 -0.2328
                    CHANNELS 3 Zrotation Xrotation Yrotation
                    JOINT LeftHandRing3
                    {
                      OFFSET 2.1191 -0.106598 -0.1332
                      CHANNELS 3 Zrotation Xrotation Yrotation
                      End Site
                      {
                        OFFSET 1.8737 -0.2304 -0.0886
                      }
                    }
                  }
                }
                JOINT LeftHandPinky1
                {
                  OFFSET 7.9094 -0.601089 -3.4825
                  CHANNELS 3 Zrotation Xrotation Yrotation
                  JOINT LeftHandPinky2
                  {
                    OFFSET 2.2874 -0.477005 -0.6314
                    CHANNELS 3 Zrotation Xrotation Yrotation
                    JOINT LeftHandPinky3
                    {
                      OFFSET 1.6774 -0.349396 -0.4633
                      CHANNELS 3 Zrotation Xrotation Yrotation
                      End Site
                      {
                        OFFSET 1.4888 -0.4091 -0.3416
                      }
                    }
                  }
                }
                JOINT LeftHandThumb1
                {
                  OFFSET 1.833 -1.3875 1.3896
                  CHANNELS 3 Zrotation Xrotation Yrotation
                  JOINT LeftHandThumb2
                  {
                    OFFSET 3.4129 -1.121 2.5732
                    CHANNELS 3 Zrotation Xrotation Yrotation
                    JOINT LeftHandThumb3
                    {
                      OFFSET 2.2474 -0.804199 1.6192
                      CHANNELS 3 Zrotation Xrotation Yrotation
                      End Site
                      {
                        OFFSET 1.6527 -0.5689 1.1317
                      }
                    }
                  }
                }
              }
            }
          }
        }
        JOINT RightShoulder
        {
          OFFSET -2.2086 21.1115 7.2329
          CHANNELS 3 Zrotation Xrotation Yrotation
          JOINT RightArm
          {
            OFFSET -13.1216 3.0287 -4.9007
            CHANNELS 3 Zrotation Xrotation Yrotation
            JOINT RightForeArm
            {
              OFFSET -27.4081 -0.0973053 -0.2375
              CHANNELS 3 Zrotation Xrotation Yrotation
              JOINT RightHand
              {
                OFFSET -22.8641 0.0664063 -0.1369
                CHANNELS 3 Zrotation Xrotation Yrotation
                JOINT RightHandIndex1
                {
                  OFFSET -8.8614 0.774994 2.4612
                  CHANNELS 3 Zrotation Xrotation Yrotation
                  JOINT RightHandIndex2
                  {
                    OFFSET -3.3146 -0.808304 0.5841
                    CHANNELS 3 Zrotation Xrotation Yrotation
                    JOINT RightHandIndex3
                    {
                      OFFSET -2.2628 -0.552002 0.3989
                      CHANNELS 3 Zrotation Xrotation Yrotation
                      End Site
                      {
                        OFFSET -1.6102 -0.4807 0.2612
                      }
                    }
                  }
                }
                JOINT RightHandMiddle1
                {
                  OFFSET -8.9937 0.894989 0.2143
                  CHANNELS 3 Zrotation Xrotation Yrotation
                  JOINT RightHandMiddle2
                  {
                    OFFSET -4.0984 0.0113983 -0.0242
                    CHANNELS 3 Zrotation Xrotation Yrotation
                    JOINT RightHandMiddle3
                    {
                      OFFSET -2.2716 0.00691223 -0.0138001
                      CHANNELS 3 Zrotation Xrotation Yrotation
                      End Site
                      {
                        OFFSET -2.0404 -0.1441 0.0027
                      }
                    }
                  }
                }
                JOINT RightHandRing1
                {
                  OFFSET -8.5234 0.597198 -2.0164
                  CHANNELS 3 Zrotation Xrotation Yrotation
                  JOINT RightHandRing2
                  {
                    OFFSET -3.7188 -0.188309 -0.2328
                    CHANNELS 3 Zrotation Xrotation Yrotation
                    JOINT RightHandRing3
                    {
                      OFFSET -2.1191 -0.106598 -0.1332
                      CHANNELS 3 Zrotation Xrotation Yrotation
                      End Site
                      {
                        OFFSET -1.8737 -0.2304 -0.0886
                      }
                    }
                  }
                }
                JOINT RightHandPinky1
                {
                  OFFSET -7.9094 -0.601105 -3.4825
                  CHANNELS 3 Zrotation Xrotation Yrotation
                  JOINT RightHandPinky2
                  {
                    OFFSET -2.2874 -0.477005 -0.6314
                    CHANNELS 3 Zrotation Xrotation Yrotation
                    JOINT RightHandPinky3
                    {
                      OFFSET -1.6774 -0.349396 -0.4633
                      CHANNELS 3 Zrotation Xrotation Yrotation
                      End Site
                      {
                        OFFSET -1.4888 -0.4091 -0.3416
                      }
                    }
                  }
                }
                JOINT RightHandThumb1
                {
                  OFFSET -1.833 -1.38751 1.3896
                  CHANNELS 3 Zrotation Xrotation Yrotation
                  JOINT RightHandThumb2
                  {
                    OFFSET -3.41299 -1.12099 2.5732
                    CHANNELS 3 Zrotation Xrotation Yrotation
                    JOINT RightHandThumb3
                    {
                      OFFSET -2.24741 -0.804108 1.6192
                      CHANNELS 3 Zrotation Xrotation Yrotation
                      End Site
                      {
                        OFFSET -1.6527 -0.5689 1.1317
                      }
                    }
                  }
                }
              }
            }
          }
        }
      }
    }
  }
  JOINT RightUpLeg
  {
    OFFSET -9.1966 3.8861 -0.7581
    CHANNELS 3 Zrotation Xrotation Yrotation
    JOINT RightLeg
    {
      OFFSET -0.7359 -41.0265 0
      CHANNELS 3 Zrotation Xrotation Yrotation
      JOINT RightFoot
      {
        OFFSET 0 -40.2855 0
        CHANNELS 3 Zrotation Xrotation Yrotation
        JOINT RightToeBase
        {
          OFFSET 0 -5.6122 11.7359
          CHANNELS 3 Zrotation Xrotation Yrotation
          End Site
          {
            OFFSET 0 0 7.8731
          }
        }
      }
    }
  }
  JOINT LeftUpLeg
  {
    OFFSET 9.1965 3.8864 -0.7581
    CHANNELS 3 Zrotation Xrotation Yrotation
    JOINT LeftLeg
    {
      OFFSET 0.7359 -41.0268 0
      CHANNELS 3 Zrotation Xrotation Yrotation
      JOINT LeftFoot
      {
        OFFSET 0 -40.2855 0
        CHANNELS 3 Zrotation Xrotation Yrotation
        JOINT LeftToeBase
        {
          OFFSET 0 -5.6122 11.7359
          CHANNELS 3 Zrotation Xrotation Yrotation
          End Site
          {
            OFFSET 0 0 7.8731
          }
        }
      }
    }
  }
}
MOTION
Frames:	6
Frame Time:	0.0333333
-56.5997 17.6738 23.8793 -7.00248 -0.0023482 89.998 -0.00998059 13.4103 -0.95681 0.227767 26.8189 -1.9971 0.227771 26.8189 -1.9971 -0.002322 -27.0025 40.9964 0.329141 -13.752 -41.4926 -5.08651 -8.23603 -6.36563 28.3098 -4.83889 -86.4207 -5.56341 -19.2426 -16.4601 45.3808 -20.9978 1.0703 -3.68557e-006 -3.21117e-008 -5.22643e-007 -1.59028e-015 0 -0 -1.84278e-006 -1.60559e-008 -2.61321e-007 -3.68557e-006 -3.21117e-008 -5.22643e-007 -0.0145925 -8.9888e-005 -1.63449e-006 -2.49532e-006 1.01878e-006 1.10617e-008 -3.68557e-006 -3.21117e-008 -5.22643e-007 -0.0187341 -0.00117127 5.57329e-005 -1.84272e-006 -1.60079e-008 -2.61305e-007 -3.68557e-006 -3.21117e-008 -5.22643e-007 -0.0122833 -0.00325189 0.000676145 -1.84275e-006 -1.60049e-008 -2.61273e-007 -3.68557e-006 -3.21117e-008 -5.22643e-007 -1.59028e-015 0 -0 -1.84278e-006 -1.60559e-008 -2.61321e-007 1.53171e-005 -10.0022 -1.22803e-005 59.8006 -39.064 51.3055 19.6814 -2.89967 79.8739 7.38379 19.6827 10.6264 -2.498e-007 1.56616e-006 -5.6328e-008 -2.94117e-007 8.07767e-007 -1.58745e-007 0 0 -0 -2.498e-007 1.56616e-006 -5.6328e-008 0.0149899 -9.34962e-005 7.94899e-008 -1.59028e-015 -3.18055e-015 -0 -2.498e-007 1.56616e-006 -5.6328e-008 0.0190582 -0.00119612 -6.01631e-005 1.59028e-015 3.18055e-015 7.95139e-016 -2.498e-007 1.56616e-006 -5.6328e-008 0.0123247 -0.00326652 -0.000677654 -2.51319e-007 1.56655e-006 -5.64063e-008 -2.498e-007 1.56616e-006 -5.6328e-008 -2.94117e-007 8.07767e-007 -1.58745e-007 0 0 -0 -7.38493 -31.5412 -4.38651 179.964 63.8169 175.429 -1.2183 60.5976 -2.35668 3.55242e-007 -1.17989e-006 3.04793e-007 5.09206 -30.9361 -3.47235 -179.959 61.0741 -175.237 0.968671 60.5635 2.63383 5.33274e-007 -6.38104e-007 -1.79853e-007 
-56.5997 17.6738 23.8793 -7.00248 -0.0023482 89.998 0.023743 13.3247 -0.967987 0.29914 26.6471 -2.02797 0.299169 26.6471 -2.02798 -0.00220762 -27.0023 40.9964 0.322423 -13.3906 -41.4426 -5.09763 -8.23145 -6.37961 26.5972 -4.67773 -86.783 -5.93711 -19.1345 -17.5971 45.3808 -20.9978 1.0703 2.76941e-007 -1.67584e-007 7.85139e-007 -6.28077e-007 3.30814e-006 -1.14801e-007 2.76941e-007 -1.67584e-007 7.85139e-007 2.76941e-007 -1.67584e-007 7.85139e-007 -0.0146189 -8.10758e-005 -4.25232e-007 2.7693e-007 -1.67685e-007 7.85117e-007 2.76941e-007 -1.67584e-007 7.85139e-007 -0.0187484 -0.00117135 6.22595e-005 2.76934e-007 -1.67714e-007 7.85108e-007 2.76941e-007 -1.67584e-007 7.85139e-007 -0.0122652 -0.0032426 0.000678919 2.76952e-007 -1.67672e-007 7.85113e-007 2.76941e-007 -1.67584e-007 7.85139e-007 -6.28077e-007 3.30814e-006 -1.14801e-007 2.76941e-007 -1.67584e-007 7.85139e-007 -1.0883e-005 -10.0022 -1.67048e-005 60.4814 -37.7606 51.769 19.7197 -2.63955 80.5701 7.38379 19.6827 10.6264 -0 -3.18055e-015 -0 -0 -3.18055e-015 -0 -0 -3.18055e-015 -0 -0 -3.18055e-015 -0 0.0150049 -9.18919e-005 1.47861e-007 -3.18055e-015 -6.36111e-015 -0 -0 -3.18055e-015 -0 0.0189529 -0.00118452 -5.99132e-005 -7.95139e-016 6.36111e-015 7.95139e-016 -0 -3.18055e-015 -0 0.0122792 -0.00325363 -0.000676498 -7.95139e-016 3.18055e-015 7.95139e-016 -0 -3.18055e-015 -0 -0 -3.18055e-015 -0 -0 -3.18055e-015 -0 -7.38493 -31.5412 -4.38651 179.964 63.8169 175.429 -1.2183 60.5976 -2.35668 3.55242e-007 -1.17989e-006 3.04793e-007 5.09206 -30.9361 -3.47235 -179.959 61.0741 -175.237 0.968671 60.5635 2.63383 5.33274e-007 -6.38104e-007 -1.79853e-007 
-56.5997 17.6738 23.8793 -7.00248 -0.0023482 89.998 0.0573271 13.2392 -0.979019 0.370161 26.4754 -2.05848 0.370168 26.4754 -2.05847 -0.00249477 -27.0023 40.9963 0.315394 -13.0293 -41.3926 -5.10873 -8.22691 -6.39359 24.8791 -4.50537 -87.1419 -6.30955 -19.019 -18.7366 45.3808 -20.9978 1.0703 -6.71373e-007 1.5156e-006 2.74547e-007 6.71373e-007 -1.5156e-006 -2.74547e-007 -6.71373e-007 1.5156e-006 2.74547e-007 -6.71373e-007 1.5156e-006 2.74547e-007 -0.0145908 -8.97294e-005 -3.9573e-007 -1.59028e-015 3.18055e-015 3.18055e-015 -6.71373e-007 1.5156e-006 2.74547e-007 -0.0187489 -0.00118082 5.86246e-005 1.59028e-015 -9.54166e-015 -1.59028e-015 -6.71373e-007 1.5156e-006 2.74547e-007 -0.0122512 -0.0032389 0.000674713 -3.18055e-015 3.18055e-015 1.59028e-015 -6.71373e-007 1.5156e-006 2.74547e-007 6.71373e-007 -1.5156e-006 -2.74547e-007 -6.71373e-007 1.5156e-006 2.74547e-007 -1.54715e-005 -10.0022 7.70805e-006 61.1371 -36.4537 52.2048 19.7548 -2.37911 81.2648 7.38379 19.6827 10.6264 1.59028e-015 -3.18055e-015 7.95139e-016 2.38542e-015 -6.36111e-015 7.95139e-016 7.95139e-016 -6.36111e-015 7.95139e-016 1.59028e-015 -3.18055e-015 7.95139e-016 0.0149741 -9.07913e-005 8.3497e-007 7.95139e-016 3.18055e-015 1.59028e-015 1.59028e-015 -3.18055e-015 7.95139e-016 0.0189779 -0.00119064 -5.81241e-005 7.95139e-016 0 -0 1.59028e-015 -3.18055e-015 7.95139e-016 0.0122884 -0.00325177 -0.000676452 -5.06587e-008 1.92101e-006 6.20249e-008 1.59028e-015 -3.18055e-015 7.95139e-016 2.38542e-015 -6.36111e-015 7.95139e-016 7.95139e-016 -6.36111e-015 7.95139e-016 -7.38493 -31.5412 -4.38651 179.964 63.8169 175.429 -1.2183 60.5976 -2.35668 3.55242e-007 -1.17989e-006 3.04793e-007 5.09206 -30.9361 -3.47235 -179.959 61.0741 -175.237 0.968671 60.5635 2.63383 5.33274e-007 -6.38104e-007 -1.79853e-007 
-56.5997 17.6738 23.8793 -7.00248 -0.0023482 89.998 0.0908449 13.1537 -0.990107 0.440799 26.3037 -2.08854 0.4408 26.3037 -2.08855 -0.00243032 -27.0023 40.9963 0.308055 -12.6682 -41.3427 -5.11978 -8.22234 -6.40759 23.1564 -4.32137 -87.4965 -6.68046 -18.8961 -19.8783 45.3808 -20.9978 1.0703 -1.55181e-006 -1.6205e-007 6.05959e-007 1.55181e-006 1.6205e-007 -6.05959e-007 -1.55181e-006 -1.6205e-007 6.05959e-007 -1.55181e-006 -1.6205e-007 6.05959e-007 -0.0146057 -9.07415e-005 -1.38818e-006 -1.55177e-006 -1.62127e-007 6.05939e-007 -1.55181e-006 -1.6205e-007 6.05959e-007 -0.0187504 -0.00117316 5.80505e-005 -1.55175e-006 -1.62145e-007 6.05948e-007 -1.55181e-006 -1.6205e-007 6.05959e-007 -0.0122676 -0.00325095 0.000674713 -1.55176e-006 -1.62096e-007 6.05983e-007 -1.55181e-006 -1.6205e-007 6.05959e-007 1.55181e-006 1.6205e-007 -6.05959e-007 -1.55181e-006 -1.6205e-007 6.05959e-007 1.60151e-005 -10.0022 -9.34675e-006 61.7694 -35.1441 52.6152 19.7867 -2.11891 81.958 7.38379 19.6827 10.6264 -2.13709e-007 -1.0629e-006 1.55303e-007 -2.85916e-007 5.55624e-007 8.51969e-008 -1.59028e-015 -9.54166e-015 -1.59028e-015 -2.13709e-007 -1.0629e-006 1.55303e-007 0.0150106 -9.17119e-005 -1.16129e-007 -2.38542e-015 -6.36111e-015 1.59028e-015 -2.13709e-007 -1.0629e-006 1.55303e-007 0.018968 -0.00118449 -6.07101e-005 -2.16236e-007 -1.06271e-006 1.55489e-007 -2.13709e-007 -1.0629e-006 1.55303e-007 0.0123026 -0.00325386 -0.000677228 7.95139e-016 -3.18055e-015 7.95139e-016 -2.13709e-007 -1.0629e-006 1.55303e-007 -2.85916e-007 5.55624e-007 8.51969e-008 -1.59028e-015 -9.54166e-015 -1.59028e-015 -7.38493 -31.5412 -4.38651 179.964 63.8169 175.429 -1.2183 60.5976 -2.35668 3.55242e-007 -1.17989e-006 3.04793e-007 5.09206 -30.9361 -3.47235 -179.959 61.0741 -175.237 0.968671 60.5635 2.63383 5.33274e-007 -6.38104e-007 -1.79853e-007 
-56.5997 17.6738 23.8793 -7.00248 -0.0023482 89.998 0.124239 13.0683 -1.00092 0.511118 26.1321 -2.11829 0.511096 26.1321 -2.11826 -0.00195784 -27.0025 40.9965 0.300425 -12.3072 -41.2928 -5.13089 -8.21776 -6.42156 21.4297 -4.12608 -87.8463 -7.04959 -18.7659 -21.0219 45.3808 -20.9978 1.07031 -3.11289e-007 3.08366e-006 6.77158e-007 1.98647e-006 2.19003e-006 2.16441e-006 -3.11289e-007 3.08366e-006 6.77158e-007 -3.11289e-007 3.08366e-006 6.77158e-007 -0.0145929 -9.01767e-005 -5.68004e-007 -3.1145e-007 3.08357e-006 6.77551e-007 -3.11289e-007 3.08366e-006 6.77158e-007 -0.0187535 -0.00117547 6.04131e-005 -3.11487e-007 3.08354e-006 6.77667e-007 -3.11289e-007 3.08366e-006 6.77158e-007 -0.0122631 -0.0032454 0.000678997 -3.11387e-007 3.08355e-006 6.77504e-007 -3.11289e-007 3.08366e-006 6.77158e-007 1.98647e-006 2.19003e-006 2.16441e-006 -3.11289e-007 3.08366e-006 6.77158e-007 -8.91574e-006 -10.0022 1.24998e-005 62.3799 -33.8325 53.0013 19.8154 -1.8591 82.6499 7.38379 19.6827 10.6264 -2.11823e-007 -8.88524e-007 -3.76319e-010 3.29e-007 3.88869e-007 -5.58048e-007 1.59028e-015 0 -0 -2.11823e-007 -8.88524e-007 -3.76319e-010 0.0150086 -9.00345e-005 -3.28357e-007 -2.13826e-007 -8.88512e-007 -2.59751e-010 -2.11823e-007 -8.88524e-007 -3.76319e-010 0.0190139 -0.00119051 -6.0296e-005 1.59028e-015 0 3.18055e-015 -2.11823e-007 -8.88524e-007 -3.76319e-010 0.0122581 -0.00324893 -0.00067409 2.38542e-015 -9.54166e-015 -7.95139e-016 -2.11823e-007 -8.88524e-007 -3.76319e-010 3.29e-007 3.88869e-007 -5.58048e-007 1.59028e-015 0 -0 -7.38493 -31.5412 -4.38651 179.964 63.8169 175.429 -1.2183 60.5976 -2.35668 3.55242e-007 -1.17989e-006 3.04793e-007 5.09206 -30.9361 -3.47235 -179.959 61.0741 -175.237 0.968671 60.5635 2.63383 5.33274e-007 -6.38104e-007 -1.79853e-007 
-56.5997 17.6738 23.8793 -7.00248 -0.0023482 89.998 0.157547 12.9829 -1.01174 0.581051 25.9606 -2.14758 0.58105 25.9606 -2.14758 -0.00253895 -27.0022 40.9963 0.292471 -11.9464 -41.2429 -5.14198 -8.21319 -6.43555 19.7001 -3.92033 -88.1912 -7.41672 -18.6282 -22.1672 45.3808 -20.9978 1.07031 -4.77083e-015 -6.36111e-015 -3.18055e-015 1.43834e-006 3.62123e-006 2.06371e-007 1.76556e-031 -3.18055e-015 3.18055e-015 -4.77083e-015 -6.36111e-015 -3.18055e-015 -0.0145868 -8.48044e-005 -9.14182e-008 -6.36111e-015 6.36111e-015 3.18055e-015 -4.77083e-015 -6.36111e-015 -3.18055e-015 -0.0187449 -0.00116872 5.82185e-005 -3.18055e-015 6.36111e-015 3.18055e-015 -4.77083e-015 -6.36111e-015 -3.18055e-015 -0.012278 -0.00324386 0.000677038 -1.76556e-031 -6.36111e-015 -1.59028e-015 -4.77083e-015 -6.36111e-015 -3.18055e-015 1.43834e-006 3.62123e-006 2.06371e-007 1.76556e-031 -3.18055e-015 3.18055e-015 5.71146e-006 -10.0022 1.69299e-006 62.9699 -32.5195 53.3643 19.841 -1.59879 83.3401 7.38379 19.6827 10.6264 -3.88473e-007 3.13634e-008 1.72244e-007 1.90833e-014 3.18055e-015 -1.82882e-014 -3.88473e-007 3.13633e-008 1.72244e-007 -3.88473e-007 3.13634e-008 1.72244e-007 0.0150333 -8.94213e-005 -7.13601e-007 -4.29214e-007 -2.36164e-006 5.36736e-007 -3.88473e-007 3.13634e-008 1.72244e-007 0.0189734 -0.00119349 -5.90502e-005 -3.88467e-007 3.13914e-008 1.72243e-007 -3.88473e-007 3.13634e-008 1.72244e-007 0.0122631 -0.00324518 -0.000676033 -4.29523e-007 -2.36204e-006 5.36608e-007 -3.88473e-007 3.13634e-008 1.72244e-007 1.90833e-014 3.18055e-015 -1.82882e-014 -3.88473e-007 3.13633e-008 1.72244e-007 -7.38493 -31.5412 -4.38651 179.964 63.8169 175.429 -1.2183 60.5976 -2.35668 3.55242e-007 -1.17989e-006 3.04793e-007 5.09206 -30.9361 -3.47235 -179.959 61.0741 -175.237 0.968671 60.5635 2.63383 5.33274e-007 -6.38104e-007 -1.79853e-007 
